<svg xmlns="http://www.w3.org/2000/svg" viewBox="0 0 214.49 214.49"><defs><style>.cls-1,.cls-2{fill:#c8161d;}.cls-1{fill-rule:evenodd;}</style></defs><g id="图层_2" data-name="图层 2"><g id="图层_1-2" data-name="图层 1"><path class="cls-1" d="M107.24,0A107.25,107.25,0,1,0,214.49,107.24,107.36,107.36,0,0,0,107.24,0ZM211.87,107.24A104.63,104.63,0,1,1,107.24,2.62,104.74,104.74,0,0,1,211.87,107.24Z"/><path class="cls-1" d="M107.24,4A103.25,103.25,0,1,0,210.49,107.24,103.37,103.37,0,0,0,107.24,4ZM209.51,107.24A102.27,102.27,0,1,1,107.24,5,102.39,102.39,0,0,1,209.51,107.24Z"/><path class="cls-1" d="M74.64,15.06c-.14,3.86,3.43,1.83,5.71,1.66.8-.07,8-2.88,7,.08-.62,1.84-3,1.24-4.45,1.4a18.75,18.75,0,0,0-5.31,1.57c-1.56.72-.4,1.72.85,1.41a11,11,0,0,1,3.42-.33A15.91,15.91,0,0,1,90,23.5c1.19.84,4.58,4.2,2.45,5.22-1.3.61-3.08-1.19-4-2C87,25.43,86,24.28,84,23.66a10.16,10.16,0,0,0-9.94,2,13.82,13.82,0,0,0-5,8.06c-.24,1.38-.84,6.33-3.11,4.69-2.52-1.81,1.07-7.7,1.72-8.75a16.87,16.87,0,0,1,1.63-1.95c.44-.47,1.42-1.62,2.16-2.48a27.44,27.44,0,0,1,2.27-2.15c.79-.63,1.12-1.74-.34-1.67s-2,.88-3.69,1.6-6,4.7-6.84,2.33c-1-2.92,5.46-4.1,7.21-4.8L71.48,20a3.23,3.23,0,0,0,.86-.51A2,2,0,0,0,72.82,18a8.63,8.63,0,0,1-1-2.84A2.36,2.36,0,0,1,74.64,15.06Z"/><path class="cls-1" d="M68.92,133.46l-7.57-4.06-2.52,4.39a7.06,7.06,0,0,1,2.94,5.28l13.52,7.24,4.13-7.23-6.76-3.62,20.92-39a.29.29,0,0,0-.13-.44l-3.21-1.7c-.22-.11-.36,0-.45.11l-20.87,39Z"/><path class="cls-1" d="M81.43,136.49h55a2.06,2.06,0,0,1,2,2v12.63a2,2,0,0,1-2,2.05h-55a2,2,0,0,1-2-2.05V138.54a2.06,2.06,0,0,1,2-2Zm.68,1.78h0a.85.85,0,0,0-.85.84v11.21a1.13,1.13,0,0,0,1.12,1.12h53.17a1.12,1.12,0,0,0,1.11-1.12V139.39a1.12,1.12,0,0,0-1.11-1.12Z"/><rect class="cls-2" x="77.75" y="73.91" width="18.67" height="4.07"/><rect class="cls-2" x="77.75" y="80.11" width="18.67" height="4.08"/><rect class="cls-2" x="77.75" y="86.32" width="18.67" height="4.08"/><path class="cls-1" d="M149.53,113.54h1.16a.54.54,0,0,1,.59.46v1.34a1.92,1.92,0,0,0,1-1.67V108.1a1.93,1.93,0,0,0-1-1.69v1.09a.55.55,0,0,1-.59.47h-1.16a.54.54,0,0,1-.59-.47v-1.09a1.92,1.92,0,0,0-1,1.69v5.57a1.91,1.91,0,0,0,1,1.67V114a.54.54,0,0,1,.59-.46ZM73.87,97.47c-.66,0-1.28,0-1.62.57-1,1.6-.79,6-.79,7.76h-4.8l-1.19-1.17v-8c1.15-1.87,4.08-3.27,9.47-3.26H86.61c.37,0,.51.31.4.51l-6.4,11.92H73.87V97.47Zm16.65,10.47h0l6.7-12.51a.43.43,0,0,0-.19-.64L94.37,93.4h64.44v4.65c0-.18,0,2-5.84,3-.56.07-1.12.21-1.68.29v2.74a3.16,3.16,0,0,1,2.85,3.13v7.44a3.16,3.16,0,0,1-2.85,3.13v4.14a3.15,3.15,0,0,1,2.85,3.14v7.28a3.15,3.15,0,0,1-3.14,3.14h-1.77a3.15,3.15,0,0,1-3.14-3.14V125a3.15,3.15,0,0,1,2.85-3.14v-4.14a3.16,3.16,0,0,1-2.85-3.13v-7.44a3.16,3.16,0,0,1,2.85-3.13v-2.38c-4.57.77-9,2.12-12.38,6H132.5a17.08,17.08,0,0,0-3.59,2.43,12.37,12.37,0,0,0-3.29,4.33h-1.41a7.41,7.41,0,0,0-1.29,1s0,0,0,0l0,0,0,.05h0l0,0h0l0,0h0l0,0h0s0,0,0,0h0s0,0,0,0h0l0,0a2.81,2.81,0,0,0-.71,2.18c.32,2,.94,2.5,2.81,4.07A56.81,56.81,0,0,1,131.4,129c1.21,1.63,1.38,3.94.41,4.56a1.06,1.06,0,0,1-.57.16H86.1c-1.56,0-1.56-2.82-.16-4.71a56.81,56.81,0,0,1,6.72-6.91c1.87-1.57,2.5-2,2.81-4.07s-2.35-3.62-2.35-3.62h-1.4a11.78,11.78,0,0,0-2.49-3.35h18.32a1.06,1.06,0,0,0,1-1V109a1,1,0,0,0-1-1Zm60.76,16.32v1a.54.54,0,0,1-.59.47h-1.16a.54.54,0,0,1-.59-.47v-1a1.9,1.9,0,0,0-1,1.68v5.41a1.94,1.94,0,0,0,1.92,1.94h.48a1.94,1.94,0,0,0,1.93-1.94v-5.41a1.9,1.9,0,0,0-1-1.68Zm-58.58,3a1.06,1.06,0,0,0-1,1.06v1.06a1.05,1.05,0,0,0,1,1.05h31.67a1.07,1.07,0,0,0,1.06-1.05v-1.06a1.07,1.07,0,0,0-1.06-1.06Zm5.57-6.83a1.07,1.07,0,0,0-1.06,1v1.06a1.06,1.06,0,0,0,1.06,1h20.54a1.06,1.06,0,0,0,1-1v-1.06a1.06,1.06,0,0,0-1-1Zm.78-6.44a1,1,0,0,0-1,1v1.07a1.05,1.05,0,0,0,1,1.05h19a1.05,1.05,0,0,0,1-1.05V115a1,1,0,0,0-1-1Zm16.48-6a1,1,0,0,0-1,1V110a1.05,1.05,0,0,0,1,1H124a1,1,0,0,0,1-1V109a1,1,0,0,0-1-1Z"/><rect class="cls-2" x="97.92" y="73.91" width="3.22" height="4.07"/><path class="cls-1" d="M80.18,70.19a45,45,0,0,0,17.27-5l1.67,3.71a49.92,49.92,0,0,1-18,5Z"/><polygon class="cls-1" points="101.79 63.15 98.87 64.56 100.53 68.22 103.47 66.8 101.79 63.15 101.79 63.15"/><rect class="cls-2" x="97.92" y="80.11" width="3.22" height="4.08"/><rect class="cls-2" x="97.92" y="86.32" width="3.22" height="4.08"/><path class="cls-1" d="M120.69,67.93l5.9-3.25L139,87.21l-5.91,3.26L120.69,67.93Zm3.75,3.12.72,1.25,2.65-1.48-.72-1.25-2.65,1.48ZM126,73.77l.72,1.24,2.65-1.47-.71-1.25Z"/><path class="cls-1" d="M113.73,61.74h7.1v28.7h-7.1V61.74ZM103.46,59.1h7.94V90.44h-7.94V59.1Zm2.45,4v1.41h3V63.15Zm0,3.11v1.42h3V66.26Zm0,3.11v1.42h3V69.37Zm0,3.11V73.9h3V72.48Zm9.85-6.22v1.42h3V66.26Zm0,3.11v1.42h3V69.37Zm0,3.11V73.9h3V72.48Z"/><path class="cls-1" d="M107.22,168.25a61,61,0,1,1,61-61,61.07,61.07,0,0,1-61,61Zm74.31-63-5.83-.76a.73.73,0,0,1-.53-.3c0-1-.08-1.89-.15-2.8a.54.54,0,0,1,.45-.34l5.68-1.51a.29.29,0,0,0,.19-.3c-.08-.49-.12-1.06-.23-1.7v-.08c-.07-.61-.15-1.17-.23-1.67,0-.23-.15-.23-.26-.23h-5.87a.65.65,0,0,1-.53-.22q-.27-1.35-.57-2.76a.64.64,0,0,1,.42-.38L179.52,90c.08,0,.19-.08.11-.3-.11-.49-.22-1-.41-1.62V88c-.19-.61-.34-1.17-.45-1.67a.27.27,0,0,0-.31-.19l-5.83.8a.61.61,0,0,1-.56-.15c-.27-.91-.57-1.78-.91-2.65a.79.79,0,0,1,.38-.49l5.11-2.91c.07,0,.15-.12.07-.31-.15-.49-.38-1-.61-1.58l0,0v0c-.27-.61-.5-1.1-.68-1.59-.08-.18-.19-.15-.31-.15l-5.68,1.55a.58.58,0,0,1-.6-.11c-.38-.84-.8-1.63-1.21-2.42a.66.66,0,0,1,.3-.57l4.66-3.56a.26.26,0,0,0,.07-.34c-.26-.45-.53-.94-.83-1.48a0,0,0,0,0,0,0v0c-.35-.57-.61-1.06-.88-1.47-.11-.19-.22-.15-.34-.12l-5.41,2.27a.64.64,0,0,1-.64,0c-.5-.75-1-1.48-1.48-2.19a.58.58,0,0,1,.19-.64l4.16-4.16c.08-.08.15-.15,0-.34-.3-.38-.65-.84-1-1.37h0v0h0c-.38-.53-.72-.95-1-1.37-.15-.14-.26-.1-.34,0l-5.07,2.91a.66.66,0,0,1-.69,0c-.56-.64-1.13-1.33-1.74-2a.67.67,0,0,1,.12-.64l3.6-4.65c.07-.08.11-.19,0-.34A16.2,16.2,0,0,0,160,54.64v0h0v0h0a16.14,16.14,0,0,0-1.22-1.17c-.15-.16-.26-.07-.34,0l-4.65,3.59a.69.69,0,0,1-.65.12c-.64-.57-1.32-1.18-2-1.71a.69.69,0,0,1,0-.68l3-5.1a.22.22,0,0,0-.08-.31c-.42-.33-.83-.67-1.36-1v0h0v0c-.53-.38-1-.72-1.36-1-.19-.12-.26,0-.34,0l-4.16,4.16a.69.69,0,0,1-.61.23c-.76-.53-1.48-1-2.23-1.52a.63.63,0,0,1,0-.64L146.1,44a.23.23,0,0,0-.12-.34c-.41-.27-.9-.53-1.47-.87h0a0,0,0,0,0,0,0c-.53-.3-1-.56-1.47-.83a.25.25,0,0,0-.34.08l-3.56,4.65a.59.59,0,0,1-.57.3c-.79-.42-1.59-.83-2.42-1.21a.59.59,0,0,1-.12-.61l1.56-5.67c0-.08,0-.23-.16-.3-.48-.19-1-.42-1.58-.69h-.08c-.57-.26-1.1-.45-1.59-.63a.21.21,0,0,0-.3.1L130.88,43a.6.6,0,0,1-.49.37c-.87-.33-1.74-.64-2.65-.91a.59.59,0,0,1-.15-.56l.8-5.83c0-.11,0-.22-.19-.26-.5-.15-1.07-.3-1.67-.46v0h-.07c-.61-.16-1.14-.3-1.63-.41-.23,0-.27,0-.3.14l-2.28,5.41a.58.58,0,0,1-.38.42l-2.76-.57a.63.63,0,0,1-.23-.53V33.9c0-.07,0-.22-.22-.22a16.39,16.39,0,0,0-1.67-.26h-.07c-.65-.08-1.21-.16-1.71-.2-.22,0-.26.08-.26.16l-1.55,5.67a.64.64,0,0,1-.35.49c-.9-.07-1.85-.15-2.8-.19a.65.65,0,0,1-.26-.53L109.23,33c0-.08-.07-.19-.26-.19a5.63,5.63,0,0,0-.84,0h-1.85a5.5,5.5,0,0,0-.83,0c-.19,0-.23.11-.23.19l-.76,5.82a.72.72,0,0,1-.3.53c-1,0-1.86.12-2.8.19a.74.74,0,0,1-.31-.49l-1.51-5.67a.2.2,0,0,0-.26-.16c-.53,0-1.1.12-1.7.2H97.5a16.42,16.42,0,0,0-1.71.26.21.21,0,0,0-.22.22v5.87a.52.52,0,0,1-.19.53l-2.77.57a.6.6,0,0,1-.41-.42L90,35a.22.22,0,0,0-.3-.14c-.5.11-1.07.25-1.67.41h0s0,0,0,0c-.6.16-1.17.31-1.63.46-.22,0-.18.15-.18.26l.75,5.83a.59.59,0,0,1-.15.56c-.87.27-1.78.58-2.65.91A.64.64,0,0,1,83.6,43l-2.94-5.08a.22.22,0,0,0-.31-.1c-.49.18-1,.37-1.58.63h-.08c-.57.27-1.1.5-1.56.69a.23.23,0,0,0-.15.3L78.5,45.1a.72.72,0,0,1-.08.61c-.83.38-1.66.79-2.46,1.21a.6.6,0,0,1-.56-.3L71.87,42a.25.25,0,0,0-.34-.08c-.41.27-.94.53-1.47.83v0H70c-.53.34-1,.6-1.48.87a.26.26,0,0,0-.07.34l2.23,5.41a.54.54,0,0,1,0,.64c-.72.49-1.47,1-2.19,1.52a.69.69,0,0,1-.64-.23l-4.13-4.16a.23.23,0,0,0-.34,0c-.42.3-.87.64-1.36,1l0,0h0v0c-.49.38-.94.72-1.33,1a.2.2,0,0,0-.07.31l3,5.1a.71.71,0,0,1,0,.68c-.68.53-1.32,1.14-2,1.71a.74.74,0,0,1-.68-.12l-4.65-3.59a.26.26,0,0,0-.35,0c-.37.34-.75.71-1.21,1.17l0,0a0,0,0,0,1,0,0c-.42.41-.83.83-1.17,1.21a.23.23,0,0,0,0,.34l3.59,4.65a.65.65,0,0,1,.12.64c-.57.64-1.14,1.33-1.71,2a.64.64,0,0,1-.68,0L49.54,60.5a.18.18,0,0,0-.3,0c-.34.42-.69.84-1.06,1.37h0v0c-.42.53-.76,1-1,1.37-.16.19-.08.26,0,.34l4.16,4.16a.68.68,0,0,1,.23.64c-.53.71-1,1.44-1.51,2.19a.65.65,0,0,1-.65,0L43.94,68.4c-.07,0-.19-.07-.3.12-.27.41-.57.9-.87,1.47h0v.07a15.78,15.78,0,0,0-.83,1.48c-.12.19,0,.27,0,.34l4.69,3.56a.65.65,0,0,1,.26.57c-.41.79-.79,1.58-1.21,2.42a.58.58,0,0,1-.6.11L39.4,77a.29.29,0,0,0-.31.15c-.19.49-.41,1-.64,1.59h0v.08c-.26.56-.45,1.09-.64,1.58a.23.23,0,0,0,.11.31L43,83.61a.63.63,0,0,1,.38.49c-.35.87-.61,1.74-.91,2.65a.62.62,0,0,1-.57.15L36,86.1a.24.24,0,0,0-.27.19c-.15.5-.3,1.06-.45,1.67h0V88c-.15.6-.3,1.13-.41,1.62,0,.22.07.26.14.3l5.42,2.27a.64.64,0,0,1,.42.38q-.3,1.41-.54,2.76a.63.63,0,0,1-.56.22H33.87c-.07,0-.19,0-.23.23-.07.5-.18,1.06-.26,1.67v.08c-.08.64-.15,1.21-.19,1.7,0,.22.07.26.15.3L39,101.08a.65.65,0,0,1,.49.34c-.07.91-.15,1.85-.19,2.8a.61.61,0,0,1-.53.3l-5.83.76c-.07,0-.19,0-.19.22,0,.54,0,1.1,0,1.7v.12c0,.61,0,1.18,0,1.7,0,.19.12.24.19.24l5.83.75a.61.61,0,0,1,.53.3c0,.94.12,1.85.19,2.8a.65.65,0,0,1-.49.34L33.34,115c-.08,0-.19.08-.15.3,0,.5.11,1.06.19,1.67V117c.08.6.15,1.17.26,1.67a.2.2,0,0,0,.23.22h5.87a.74.74,0,0,1,.56.19c.16.95.34,1.85.54,2.8a.64.64,0,0,1-.42.38L35,124.57c-.11,0-.18.08-.14.31.11.44.26,1,.41,1.62v.07h0c.15.61.3,1.17.45,1.67a.24.24,0,0,0,.27.19l5.83-.8a.65.65,0,0,1,.57.15,27.79,27.79,0,0,0,.91,2.66.52.52,0,0,1-.38.44l-5.08,3a.22.22,0,0,0-.11.3c.19.5.38,1,.64,1.59v.08c.27.61.49,1.1.68,1.59a.23.23,0,0,0,.31.11L45.08,136a.62.62,0,0,1,.6.11c.38.8.8,1.63,1.21,2.42a.6.6,0,0,1-.3.57l-4.65,3.56a.25.25,0,0,0-.08.34c.26.45.53.94.83,1.48,0,0,0,0,0,0v0h0c.3.57.6,1.06.87,1.48a.23.23,0,0,0,.3.11l5.41-2.27a.63.63,0,0,1,.65,0c.49.75,1,1.47,1.51,2.19a.68.68,0,0,1-.23.64l-4.16,4.17c-.08.07-.16.14,0,.34.26.38.6.83,1,1.35h0v0h0c.37.53.72,1,1.06,1.37.11.14.23.11.3,0l5.11-2.91a.64.64,0,0,1,.68,0c.57.64,1.14,1.33,1.71,2a.65.65,0,0,1-.12.64l-3.59,4.66a.23.23,0,0,0,0,.34,16.12,16.12,0,0,0,1.17,1.21s0,0,0,0v0h0c.46.45.84.83,1.21,1.17a.25.25,0,0,0,.35,0l4.65-3.59a.68.68,0,0,1,.64-.12c.65.57,1.33,1.18,2,1.71a.6.6,0,0,1,0,.68L60.48,165c-.08.08-.11.19,0,.34.42.31.87.64,1.36,1v0h0v0l1.4,1c.15.12.23,0,.3,0l4.17-4.16a.69.69,0,0,1,.64-.22c.72.53,1.44,1,2.19,1.51a.61.61,0,0,1,0,.64l-2.27,5.42a.28.28,0,0,0,.11.33c.42.27.91.53,1.48.87h0a0,0,0,0,0,0,0l1.47.83a.25.25,0,0,0,.34-.08l3.53-4.65a.58.58,0,0,1,.56-.3c.8.42,1.63.83,2.42,1.21a.62.62,0,0,1,.12.61L77,175.06a.22.22,0,0,0,.15.3l1.56.69h0s0,0,0,0a16.26,16.26,0,0,0,1.58.61c.19.07.27,0,.31-.12l2.94-5a.55.55,0,0,1,.46-.38c.87.34,1.74.64,2.65.91a.59.59,0,0,1,.15.56l-.79,5.79c0,.12,0,.23.19.26.49.16,1.06.31,1.66.49H88c.6.19,1.17.31,1.63.42.22.08.26,0,.3-.11L92.2,174a.61.61,0,0,1,.38-.37c1,.18,1.85.37,2.8.52a.62.62,0,0,1,.19.53v5.87c0,.11,0,.22.22.26.5.08,1.07.15,1.67.22h.12c.6.12,1.17.16,1.66.23.23,0,.27-.11.3-.19l1.51-5.67a.6.6,0,0,1,.31-.45c.91.07,1.85.11,2.8.15a.8.8,0,0,1,.3.52l.76,5.84c0,.07,0,.18.23.22H109a.33.33,0,0,0,.26-.22l.76-5.84a.71.71,0,0,1,.26-.52c1,0,1.9-.08,2.8-.15a.63.63,0,0,1,.38.45l1.52,5.67c0,.08.08.19.26.19.5-.07,1.06-.11,1.71-.23H117c.65-.07,1.18-.14,1.71-.22.18,0,.18-.15.18-.26v-5.87a.65.65,0,0,1,.23-.53c.91-.15,1.85-.34,2.76-.52a.65.65,0,0,1,.42.37l2.24,5.45a.2.2,0,0,0,.3.11c.49-.11,1-.23,1.66-.42h.08l1.63-.49c.19,0,.19-.14.19-.26l-.8-5.79a.71.71,0,0,1,.15-.56c.91-.27,1.78-.57,2.65-.91a.61.61,0,0,1,.49.38l2.92,5a.24.24,0,0,0,.34.12c.45-.15,1-.37,1.59-.61v0h0l1.58-.69c.19-.07.16-.18.16-.3L136,169.43a.67.67,0,0,1,.12-.61c.83-.38,1.63-.79,2.46-1.21a.56.56,0,0,1,.53.3l3.59,4.65a.22.22,0,0,0,.31.08c.45-.26.94-.53,1.51-.83v0h0c.57-.34,1.06-.6,1.47-.87.2-.11.16-.23.12-.33l-2.23-5.42a.61.61,0,0,1,0-.64c.75-.5,1.51-1,2.23-1.51a.66.66,0,0,1,.61.22l4.16,4.16c.08.08.15.16.34,0,.41-.3.87-.64,1.36-1v0h0s0,0,0,0c.49-.39.94-.72,1.32-1,.15-.15.12-.26.08-.34l-3-5.1a.68.68,0,0,1,0-.68c.69-.53,1.33-1.14,2-1.71a.77.77,0,0,1,.69.12l4.65,3.59c.08,0,.15.12.3,0,.38-.34.8-.72,1.26-1.17v0h0v0c.45-.42.87-.83,1.21-1.21.11-.16.07-.27,0-.34l-3.57-4.66a.62.62,0,0,1-.15-.64c.61-.64,1.18-1.33,1.74-2a.66.66,0,0,1,.69,0L165,154c.08.08.19.11.34,0,.3-.42.64-.84,1.06-1.37v0h0c.37-.52.72-1,1-1.35.11-.2,0-.27,0-.34l-4.16-4.17a.66.66,0,0,1-.19-.64c.49-.72,1-1.44,1.48-2.19a.62.62,0,0,1,.64,0l5.45,2.27a.25.25,0,0,0,.3-.11c.27-.42.53-.91.88-1.48v0h0v0c.3-.54.61-1,.83-1.48.11-.19,0-.26-.07-.34l-4.66-3.56a.66.66,0,0,1-.3-.57c.41-.79.83-1.62,1.21-2.42a.62.62,0,0,1,.6-.11l5.68,1.51a.22.22,0,0,0,.31-.11c.22-.49.45-1,.68-1.59v0l0,0c.23-.57.46-1.09.61-1.59.08-.18,0-.26-.07-.3l-5.11-3a.51.51,0,0,1-.34-.44c.3-.88.6-1.75.87-2.66a.64.64,0,0,1,.56-.15l5.83.8a.27.27,0,0,0,.31-.19c.11-.5.26-1.06.45-1.67v-.07c.19-.61.3-1.18.41-1.62.08-.23,0-.27-.11-.31l-5.45-2.27a.64.64,0,0,1-.42-.38c.23-1,.39-1.85.57-2.8a.63.63,0,0,1,.53-.19h5.87c.11,0,.23,0,.26-.22.08-.5.16-1.07.23-1.67v-.11c.11-.61.15-1.17.23-1.67a.29.29,0,0,0-.19-.3l-5.68-1.51a.54.54,0,0,1-.45-.34c.07-1,.11-1.86.15-2.8a.73.73,0,0,1,.53-.3l5.83-.75c.08,0,.19-.05.23-.24V105.5C181.72,105.32,181.61,105.28,181.53,105.28Z"/><path class="cls-1" d="M101.75,147.1a.53.53,0,0,1-.54.5H95.86a.52.52,0,0,1-.54-.5V146a.52.52,0,0,1,.54-.5h5.35a.52.52,0,0,1,.54.5v1.08Zm-6.34-4.58A.52.52,0,0,1,96,142h5.17a.52.52,0,0,1,.54.49v1.06a.51.51,0,0,1-.54.48H96a.51.51,0,0,1-.54-.48v-1.06Zm8.1,2.25-.08,0-.17-.07.17-.07.06,0a1.27,1.27,0,0,0,.7-1.16v-1.59a1.33,1.33,0,0,0-1.32-1.28H94.1a1.27,1.27,0,0,0-1.26,1.28v1.59a1.29,1.29,0,0,0,.69,1.16l.07,0,.17.08-.18.06-.06,0a1.26,1.26,0,0,0-.8,1.2v1.86a1.22,1.22,0,0,0,1.17,1.27h9.23a1.22,1.22,0,0,0,1.18-1.27V146A1.27,1.27,0,0,0,103.51,144.77Z"/><path class="cls-1" d="M89.3,149.09H86.59v-6.45c0-.26-.21-.26-.3-.27a2.24,2.24,0,0,0-.44.07l-2,.47v-1.55l2.13-.54.29-.07a3.89,3.89,0,0,1,1.09-.21H89a.31.31,0,0,1,.33.35Z"/><path class="cls-1" d="M27.67,62.6c-.67-.73.69-2.85,1.36-1.53.1.89-.75,1.75-1.36,1.53Zm14.12-10a27,27,0,0,0-6.11,1.11,10.31,10.31,0,0,0-4.18,4.15c-.52.78-1.09,1.85-2,1-.67-.6-1.31.32-2.08.09s-.81-1-1.14-1.63c-.46-.91-1.55.08-2.17.19-.49-.34-.16-1.72-.65-2.06-1.59,0-1.95,1-1.58,2.27S21,60,21.08,61.29a1.26,1.26,0,0,0,1.56,0c.6.27.82,1,1,1.53.32.94.74.43,1.48.4,3.82-.17,1.16,4.55.66,6.39-.27,1-.65,2.43-.1,3.39.33.6,1.27,2.42,1.46,2.82.87,1.48,5.14,3.55,3.65.31-1-2.1-2.93-3.38-2.55-5.91a27.39,27.39,0,0,1,2.21-7.86c1-2.25,3.13-4.12,5-5.6a5.14,5.14,0,0,1,3.13-1.35c1.22,0,2.53.42,3.72-.1.53-.73,0-2.1-.54-2.66ZM35.38,67.09v0c-.12,1.63-1.58,1.69-1.74,1.17s.72-2.22,1.54-1.74a.72.72,0,0,1,.21.37V67s0,0,0,.06Zm-3-.8c-.77-1.13.61-2.5.91-3.62.14-.18.21-.43.53-.45s.06,0,.62.31-1.29,4.9-2.06,3.76Zm5.78-8c.48-.09,2,0,2.22.34,1.25,1.53-.26,2.89-.43,4.34-.63,2.09-1.66,2.75-.37,4.9.86,1.43-.11,4.17-2,4-.64-.51,0-1.92-.48-2.28-2.41-.33-2.38,4.1-5.72,2.76a.65.65,0,0,1-.23-.26c-.32-1.35.8-1.59,1.08-2.47-.44-.68-1.5-.58-1.91-1.32-.25-2.76,1.18-5.22,2.44-7.39.6-1,1.47-1.79,2.7-1.23,1.64.73.41,3,1.11,4.14,2,0,.83-4,1.37-5.29,0-.05.15-.2.24-.21ZM24.77,54.44c-.32.22-1.44,1.17-1.49.25-.07-1.33,1-2.31,1.59-3.41s1.44-2.15,2.86-1.62a11.77,11.77,0,0,1,2.88,2,4.43,4.43,0,0,1,1,2.94c.05,1.38-.54,4.22-2.51,3.56-.6-1.59,1.35-2,.35-3.35-1.24-.1-.77,1.13-2,1-1.26-.78.39-2.33-.41-3.25a1.52,1.52,0,0,0-1.31,1c-.26.56-.45.54-.91.87Zm.37,10.26c.91,1.31-.22,3.46-1,4.54s-3.35.41-4.5,0c-1.47-.58-2.65-1.49-1.78-3a4.89,4.89,0,0,0,.41-1.33c.1-1.15.23-2.67,1.72-1.69.57.27-1.11,3.08-1,3.44s.36.37.74.49c1.57-.86.17-3.78,2.52-3.23.8.81-.34,2.37.35,2.87s.79-1.94,2.09-2.21A.84.84,0,0,1,25.14,64.7Z"/><path class="cls-1" d="M147.42,22.19a.88.88,0,0,1-.21-.19,7.84,7.84,0,0,0-4.86-2.17,1.25,1.25,0,0,1-.35-.08l-.1-.08c-.34-.36-.85-1.81.33-1.44s1.29.51,2.25.85,2.29.76,3.05,1.13l.08,0,.16.08h0a2.14,2.14,0,0,1,.39.28c1,.93.66,1.94-.72,1.58Zm-3.68,3.44c.26-1.55,2.24.12,1.76,1.14a.32.32,0,0,1-.22.13,1.74,1.74,0,0,1-.65-.44c-.26-.27-.9-.77-.89-.83Zm2.41,4.5c-.33.95-2.89-.74-2.84-1.94a.48.48,0,0,1,.09-.16c.79-.1,3.09,1.12,2.75,2.1Zm-2,4.17a1.8,1.8,0,0,0-.23-2.67,1.37,1.37,0,0,0-.23-.17,10.31,10.31,0,0,0-1.14-.59,1.27,1.27,0,0,0-.78-.16,1.55,1.55,0,0,0-1.52,1.54c0,1.58,2.17,2.31,3.55,2.25a.88.88,0,0,0,.35-.2Zm-4.87-6.59c-.39-.18-1.81-.93-1.64-1.52s1-.76,2.53.29a.69.69,0,0,1,.16.43c-.07.62-.18,1.2-1,.8Zm-2.83,3.72c.82.53,2.68,0,2.68-1.15,0-2-3.09-2.19-4-.74-.21.44.43,1.36,1.27,1.89Zm3.35-7.25c.29-.8,1.51-.35,1.68.34,0,.05-.1.19-.16.19a1.52,1.52,0,0,1-1.5-.34.37.37,0,0,1,0-.19Zm-8.39,3.49c.3-.28.8-.64,1.72.12a1.17,1.17,0,0,1,.17.31c.37,2.7-3.82,1.51-1.89-.43Zm-4.1,1.5c.85.36,3.59-3.06,2-4.13s-2.86,3.76-2,4.13Zm23.31-9.34a29.62,29.62,0,0,0-9.53-3.61c-1.66-.3-3.28,3.32-1.6,4.3.67.39,3.29.28,3.19,1.39h0c-.12.7-2.69-.62-4.71.5a1.39,1.39,0,0,0-.27.18,17.3,17.3,0,0,0-1.67,1.65c-.58.54-1.4,1.73-2.31,1.58-.73-.12-2-1.31-1.9-1.48.33-.64,1.26-.23,1.83-1,1.05-1.35.83-2.93,1.43-4.42s3.21-1.14,3.24-3.45c0-.93-.86-1.47-1.5-2.1l-.8-.57c-.38-.23-1.95-.21-1.7,1,.12.57,1.15,2.14.12,2.4-1.4.35-3.34-.27-4.7-.62A17,17,0,0,0,127.6,15a.92.92,0,0,0-.51.2,1.66,1.66,0,0,0,0,2.13l0,0a.58.58,0,0,0,.15.11,12.86,12.86,0,0,0,1.43.14,7.55,7.55,0,0,1,2.57.61h0c.89.42,1.37.74.41,1l-.05,0h0c-1.4.48-3.9-.75-5.29-.05a.51.51,0,0,0-.16.13c-.12.21-.51,1-.06,1.23a4.12,4.12,0,0,0,1.35.39c.28,0,2,0,2.88,0a2.7,2.7,0,0,0,.63-.13,1.56,1.56,0,0,1,.49-.15c.6-.09,1.09,0,.82.75-.34.9-3.61,1.8-4.46,1.59s-1.83.93-1.86,1.11a10.47,10.47,0,0,1-.45,2.51c-.49,1.13-1.5,2.67-1,3.93.15.41,2.69.54,5.6.94l.6.09A22.57,22.57,0,0,1,136,32.86c.6.26,1.09.45,1.5.61a26.83,26.83,0,0,1,4.65,2.83c1.69,2,4.29,5.16,5.29,3.79-.07-1.37-.85-2.37-1.44-3.54-.24-.5.43-.72.69-1,1-1.27,1.23-3.2,1.56-4.71.28-1.27.45-2.56.78-3.81.39-1.45-1.58-2.43-2.86-2.8-.17-.05-.47-.37-.44-.47.23-1,2.11-.19,3.28.54.45.29,1.61.23,1.85-.18.36-.63.6-1.41.92-1.91C152.56,21,151.65,20.39,150.67,19.83Z"/><path class="cls-1" d="M190.41,61.68c-.1,1.65-1.84,2.76-3.22,3.52s-3.14-1-3.44-2.14c-.16-.55-.29-2.27.19-2.66s1.38-.09,1.94-.57c.06,0,.12-.29.11-.36-.2-1.62,2.27-.6,3.56.42a3.61,3.61,0,0,1,.86,1.79Zm3.34,10.6a16.35,16.35,0,0,1-.5-2.53h0a52.35,52.35,0,0,0-.84-6.12c-.13-.92-.63-4.34,1-4.31.09,0,.39-.35.4-.46.14-1.68-.95-2.34-2.45-1.73a1.87,1.87,0,0,1-2.1-.07c-.16-.11-1.78-1-3.26-2-.94-.61-3.8-2.8-3.8-2.8-1.3-.77-2.6-2.75-3.38-.5,1,2,3.26,2.73,4.8,4.13.76.66,1.28,2.12-.27,1.6s-3.24-2.4-4.16-2.93-2.88-.7-2.19.89a4.43,4.43,0,0,0,2.1,2.21c.52.24,2.34.83,2.45,1.25a3.22,3.22,0,0,1-.26,2.54c-.67.83-2.48-.49-3.35-1.18l-.95-.59c-.57-.35-1.83-.93-2.67-1.32-.42-.19-1.31-.5-1.58-.58-.92-.27-3.83-1-3.26,1.07a.71.71,0,0,0,.18.21c.3.21,1,.67,1.81,1.11s4.27,1.5,5.55,2.19,2.61,1,3.64,1.95a2.15,2.15,0,0,1,.68,1.14,25.63,25.63,0,0,1,.54,3.43,22.37,22.37,0,0,1-1,6c-.49,1.6-1.91,4.24.68,4.33S184,70.83,184.15,69c0-.57.25-3.13,1.36-2.19,1.87,1.57,1.38,4.1,1.61,6.2.07.6.59.76,1.11.92.17,0,.84,0,.92-.11a4,4,0,0,0,.45-2.33c-.08-1.36-.73-3.26-.19-4.62.38-.78,1-1,1.24-.09l0,.1a10.07,10.07,0,0,1,.2,1.37,38.38,38.38,0,0,0,.63,5.7c.6.79,1.7,1.23,2.48.18C194.26,73.78,193.85,72.75,193.75,72.28Z"/><path class="cls-1" d="M116.56,143.73a.53.53,0,0,1-.55.5h-5.29a.52.52,0,0,1-.54-.5v-1.21a.52.52,0,0,1,.54-.49H116a.54.54,0,0,1,.55.49v1.21Zm1.43-3.2h-9.24a1.23,1.23,0,0,0-1.18,1.28v2.69a1.23,1.23,0,0,0,1.18,1.27H116a.54.54,0,0,1,.55.49v.85a.53.53,0,0,1-.55.49h-5.29a.52.52,0,0,1-.48-.28h-2.67v.52a1.23,1.23,0,0,0,1.18,1.26H118a1.23,1.23,0,0,0,1.17-1.27v-6A1.23,1.23,0,0,0,118,140.53Z"/><path class="cls-1" d="M125,145.9a.52.52,0,0,1,.54-.5h5.29a.53.53,0,0,1,.55.5v1.21a.53.53,0,0,1-.55.49h-5.29a.52.52,0,0,1-.54-.49v-1.2Zm-1.44,3.2h9.25a1.22,1.22,0,0,0,1.16-1.27v-2.7a1.22,1.22,0,0,0-1.16-1.27h-7.27a.53.53,0,0,1-.54-.5v-.84a.52.52,0,0,1,.54-.49h5.29a.55.55,0,0,1,.49.27H134v-.5a1.22,1.22,0,0,0-1.16-1.27h-9.25a1.23,1.23,0,0,0-1.17,1.28v6A1.23,1.23,0,0,0,123.59,149.1Z"/><path class="cls-1" d="M13.22,111.07c0-.65,0-2.15,0-3.18.62.08,1.36.13,2.11.15v.09a4.55,4.55,0,0,0-1,3.09c.05,1,.59,1.69,1.49,1.64a1.74,1.74,0,0,0,1.46-.92c.64-.91,1-2,1.78-3a3.29,3.29,0,0,1,2.73-1.41c1,0,3,.43,3.2,4.26,0,.72.05,1.85,0,2.8-.54-.12-1.31-.24-2-.34v-.09a2.7,2.7,0,0,0,.93-2.44c-.06-1.27-.79-1.87-1.53-1.83-.91,0-1.41.19-2.49,2.39-1.34,2.75-2.19,2.86-3.26,2.91C15.31,115.27,13.39,114.65,13.22,111.07Z"/><path class="cls-1" d="M20.9,126.21a40.44,40.44,0,0,0-5.6,1.22,12.67,12.67,0,0,0-.19-1.42c-.06-.38-.12-.74-.31-1.57,1.61-.13,4-.46,5.25-.67-.11-.83-.16-1.24-.26-1.88s-.23-1.25-.38-2a52,52,0,0,0-5.18,1.1,13.44,13.44,0,0,0-.19-1.42c-.06-.41-.12-.74-.31-1.57,1.6-.08,4.4-.48,5.66-.68s5.27-.78,5.65-1.42h.07c.08.69.14,1.13.22,1.63s.18,1,.3,1.55a31.1,31.1,0,0,0-4.92.6c.09.91.16,1.28.27,1.93s.15.95.37,1.91c2.56-.45,3.75-.61,4.77-1.25h.05a15.52,15.52,0,0,0,.22,1.64c.08.49.21,1.15.31,1.56C25.19,125.57,22.45,126,20.9,126.21Z"/><path class="cls-1" d="M26,131.66v-.07c-1.48-.05-2.77-.05-4.13,0,.09.44.18.77.3,1.17a12.32,12.32,0,0,0,.42,1.2c1.14-.71,2.34-1.51,3.42-2.27Zm-7.53,6.41c-.17-.53-.31-1-.53-1.53a22,22,0,0,0,3.64-2c-.13-.54-.27-1.06-.42-1.55s-.36-1-.49-1.41a11.46,11.46,0,0,0-4.06.61c-.16-.59-.21-.88-.34-1.3s-.28-.87-.47-1.34a22.87,22.87,0,0,0,2.52.35c1.12.09,2.68.19,3.91.25s2.89.1,4.27.11a2.6,2.6,0,0,0,1.4-.21l.09,0c.17.54.32,1,.44,1.31s.35.95.56,1.46a14.37,14.37,0,0,0-1.46.84c-1,.65-2.34,1.5-3.31,2.16-1.64,1.1-2.57,1.74-3.39,2.35a14.82,14.82,0,0,0-1.89,1.62C18.71,139.08,18.58,138.57,18.43,138.07Z"/><path class="cls-1" d="M28.39,147.52c-.72.32-3.68,1.64-4.93,2.35a12.34,12.34,0,0,0-1-1.88c.91-1.38,2.66-3.83,3.44-4.9l2.38-3.25,0-.05-3,1.38a38.09,38.09,0,0,0-4.6,2.63c-.15-.41-.28-.74-.45-1.12s-.37-.76-.55-1.08a45.36,45.36,0,0,0,6.55-2.48,16.64,16.64,0,0,0,3.93-2.21l.08,0c.17.47.4,1,.63,1.51s.49,1.05.72,1.45c-.6.67-1.92,2.25-2.54,3.15-1.22,1.76-2,2.83-2.69,3.8l0,.05,2-.92a25.92,25.92,0,0,0,4.72-2.72,12.2,12.2,0,0,0,.47,1.15,10.08,10.08,0,0,0,.52,1A44.22,44.22,0,0,0,28.39,147.52Z"/><path class="cls-1" d="M32.31,159.46a17.89,17.89,0,0,0-2,1.28,20,20,0,0,1-2.58-3.34c-2-3.13-1.6-5.56,2-7.86,2.24-1.41,5.45-2.26,8.16,2,.73,1.17,1.52,2.57,1.88,3.27a12.72,12.72,0,0,0-2.16.8l-.06-.11a4.43,4.43,0,0,0-.69-3.51c-1.25-2-3.32-1.67-5.67-.18-3.28,2.07-3.3,3.61-2.15,5.45.53.83,1,.63,1.48.35l1-.65a3.74,3.74,0,0,0,1.44-1.4l.08,0c.24.44.53.94.81,1.37a14.28,14.28,0,0,0,.84,1.25A18.88,18.88,0,0,0,32.31,159.46Z"/><path class="cls-1" d="M42.38,166.93a41,41,0,0,0-4.19,3.92c-.4-.55-.57-.74-.89-1.13s-.49-.57-1.08-1.2c1.32-.92,3.21-2.43,4.18-3.24-.52-.67-.77-1-1.19-1.49s-.83-1-1.32-1.48A50.25,50.25,0,0,0,34,165.9c-.38-.53-.7-.91-.88-1.13s-.49-.57-1.08-1.19c1.33-.88,3.54-2.65,4.52-3.48s4.13-3.36,4.13-4.1l.05,0c.43.56.7.91,1,1.29s.68.78,1,1.17a31.83,31.83,0,0,0-3.93,3c.55.73.8,1,1.22,1.52s.62.73,1.29,1.45c2-1.7,2.92-2.44,3.46-3.52l0,0c.34.47.6.79,1,1.3s.76.87,1.06,1.18C45.73,164.18,43.59,165.93,42.38,166.93Z"/><path class="cls-1" d="M49.52,169l-.05,0c-1.3.71-2.41,1.36-3.57,2.09.31.32.55.57.86.84s.63.55,1,.82c.63-1.19,1.25-2.49,1.79-3.7Zm-3.21,9.36c-.41-.37-.77-.69-1.24-1.05a21.62,21.62,0,0,0,2.13-3.55c-.38-.4-.77-.77-1.16-1.12s-.83-.71-1.13-1a11.23,11.23,0,0,0-3.18,2.6c-.44-.43-.63-.65-1-.95s-.69-.6-1.08-.91c.69-.23,1.86-.75,2.34-1,1-.5,2.4-1.21,3.49-1.79s2.54-1.38,3.72-2.08a2.59,2.59,0,0,0,1.1-.89l.07-.08c.42.39.77.68,1.05.91s.79.65,1.22,1c-.2.3-.54.92-.82,1.47-.57,1.1-1.25,2.48-1.75,3.55-.85,1.78-1.32,2.81-1.71,3.74a16.18,16.18,0,0,0-.8,2.37C47.07,179.12,46.69,178.76,46.31,178.4Z"/><path class="cls-1" d="M50.59,181.74c-.43-.32-.72-.52-1.35-1a49.34,49.34,0,0,0,3.68-4.45c1.15-1.54,2.8-3.63,3-4.89l0,0c.42.36.79.66,1.2,1s.89.63,1.41,1a46,46,0,0,0-3.4,4.15,45.73,45.73,0,0,0-3.48,5.15C51.13,182.16,50.85,181.93,50.59,181.74Z"/><path class="cls-1" d="M64,183.52c-.8,1.38-1.68,2.93-2,3.5-1,1.68-2.51,2.41-6.2.78l.35-1c1.51.66,2.41.67,3.42-.8.37-.53,1.21-1.94,1.83-3,1.06-1.84,2.81-4.54,2.82-5.79l.05-.08c.53.35,1,.63,1.42.88s.86.48,1.39.75A34.22,34.22,0,0,0,64,183.52Z"/><path class="cls-1" d="M66.86,191.59c-.69-.38-1-.56-1.3-.69-.48-.24-.81-.39-1.5-.69a49.09,49.09,0,0,0,2.79-5.06c.85-1.72,2.08-4.08,2.1-5.37l0,0c.48.28.89.49,1.36.72s1,.45,1.57.71a44.33,44.33,0,0,0-2.58,4.71,47.11,47.11,0,0,0-2.46,5.71Z"/><path class="cls-1" d="M76.5,185.73l-.07,0c-1,1.13-1.73,2.15-2.55,3.25.41.19.72.32,1.1.47.56.21.8.28,1.21.4.14-1.33.25-2.77.31-4.1Zm.44,9.9a15.42,15.42,0,0,0-1.54-.53,22.54,22.54,0,0,0,.69-4.09l-1.49-.62-1.41-.47a11.24,11.24,0,0,0-2,3.58c-.56-.23-.82-.37-1.24-.53s-.86-.31-1.34-.45a24,24,0,0,0,1.82-1.77c.76-.83,1.8-2,2.59-2.94s1.86-2.22,2.71-3.3a2.74,2.74,0,0,0,.69-1.23l0-.1c.54.21,1,.35,1.3.46s1,.31,1.49.45c-.07.36-.16,1.06-.22,1.67-.13,1.23-.25,2.77-.33,3.94-.14,2-.2,3.1-.22,4.12a16.65,16.65,0,0,0,.13,2.49C77.91,196,77.43,195.81,76.94,195.63Z"/><path class="cls-1" d="M84,191.9c-.62,2.63-.33,4.6,1.66,5.08,2.34.54,3.28-1.65,3.81-3.91s.7-4.71-1.57-5.24-3.32,1.6-3.9,4.07Zm8.13,1.76c-.61,2.59-2.08,5.53-6.73,4.44-2.83-.66-5.17-2.07-4-6.83.66-2.78,2.11-5.68,6.75-4.59C92.05,187.62,93,190,92.11,193.66Z"/><path class="cls-1" d="M106.72,190.63h-.1a9.17,9.17,0,0,0-3.08-.6c0,.36-.19,2.67-.33,5.13a40.5,40.5,0,0,0,0,5.29c-.71-.07-.91-.1-1.53-.13a16,16,0,0,0-1.6,0,50.47,50.47,0,0,0,.61-5.81c.07-1.23.15-3.44.2-4.59a9.54,9.54,0,0,0-3.35.25h-.11a9,9,0,0,0,.31-1.62c1.65.19,3,.29,4.53.37s3.24.18,4.87.15A8.52,8.52,0,0,0,106.72,190.63Z"/><path class="cls-1" d="M110,194.88c.17,2.69,1,4.49,3.07,4.36,2.39-.16,2.65-2.54,2.5-4.85s-.7-4.71-3-4.56-2.71,2.51-2.54,5Zm8.28-.7c.18,2.66-.37,5.9-5.14,6.22-2.89.19-5.54-.48-5.86-5.37-.18-2.84.36-6,5.12-6.35C116.44,188.42,118,190.42,118.25,194.18Z"/><path class="cls-1" d="M129.15,192.33c.16.77.77,3.95,1.18,5.33a12.13,12.13,0,0,0-2.06.56c-1.14-1.2-3.14-3.46-4-4.46l-2.63-3h0l.66,3.26a39.35,39.35,0,0,0,1.53,5.06c-.44.06-.79.11-1.19.19s-.82.19-1.19.3a45,45,0,0,0-.93-6.95,16.74,16.74,0,0,0-1.27-4.32v-.08c.5-.07,1.06-.17,1.62-.28s1.12-.25,1.57-.37c.51.73,1.76,2.37,2.49,3.18,1.44,1.59,2.3,2.6,3.11,3.48l0,0-.44-2.17a26,26,0,0,0-1.59-5.21c.32,0,.83-.12,1.21-.19a8.67,8.67,0,0,0,1.14-.29A45.11,45.11,0,0,0,129.15,192.33Z"/><path class="cls-1" d="M141.67,191.25a16.26,16.26,0,0,0,.8,2.2,19.83,19.83,0,0,1-3.85,1.75c-3.49,1.2-5.78.28-7.18-3.78-.87-2.5-.95-5.83,3.82-7.48,1.31-.44,2.86-.89,3.63-1.08a12.35,12.35,0,0,0,.27,2.28l-.12,0a4.35,4.35,0,0,0-3.57-.14c-2.22.77-2.39,2.85-1.48,5.48,1.27,3.68,2.76,4,4.81,3.34.93-.32.86-.86.68-1.36l-.4-1.16a3.48,3.48,0,0,0-1-1.72v-.09c.49-.13,1-.3,1.53-.47a14.11,14.11,0,0,0,1.4-.54A19.65,19.65,0,0,0,141.67,191.25Z"/><path class="cls-1" d="M154.19,178.91c.61,1.15,1.34,2.52,2,3.66,1.06,1.87,1.07,3.75-2,5.52-3.27,1.87-4.72,1.07-5.9-1-.3-.53-1.09-2-1.64-2.93-.39-.68-1.68-3.13-2.57-3.64l0,0c.43-.21.95-.48,1.42-.75s.84-.48,1.42-.87a32.76,32.76,0,0,0,2.38,4.79,18.22,18.22,0,0,0,2.07,3.23,2,2,0,0,0,2.44.12c2.14-1.22,1.55-2.56.27-4.81-1.8-3.15-2.43-4.36-3.6-5.36.34-.16.64-.32,1.19-.63a12.63,12.63,0,0,0,1.09-.68A17.57,17.57,0,0,0,154.19,178.91Z"/><path class="cls-1" d="M164.6,174.09c.48.62,2.42,3.21,3.39,4.28a13.15,13.15,0,0,0-1.61,1.4c-1.54-.57-4.33-1.73-5.54-2.26l-3.7-1.59,0,0,2,2.64a39.17,39.17,0,0,0,3.59,3.89c-.37.24-.66.43-1,.69a12,12,0,0,0-.93.78,47.54,47.54,0,0,0-3.88-5.84,16.45,16.45,0,0,0-3-3.33l-.05-.06c.43-.28.89-.62,1.35-1s.89-.71,1.24-1c.79.43,2.63,1.36,3.64,1.77,2,.8,3.2,1.33,4.31,1.77l0,0-1.35-1.76a25.57,25.57,0,0,0-3.71-4c.28-.17.7-.47,1-.71a11.45,11.45,0,0,0,.89-.75A46.72,46.72,0,0,0,164.6,174.09Z"/><path class="cls-1" d="M171.66,175c-.4.36-.64.62-1.17,1.16a47.36,47.36,0,0,0-3.75-4.39c-1.31-1.41-3.08-3.41-4.28-3.87l0,0c.43-.35.78-.66,1.16-1s.78-.76,1.22-1.21a43.33,43.33,0,0,0,3.49,4.07,46.18,46.18,0,0,0,4.46,4.33C172.16,174.55,171.89,174.78,171.66,175Z"/><path class="cls-1" d="M173.29,159.53c.54.95,1.39,2.41,2.13,3.69s2.19,3.82,2.84,4.91a11.4,11.4,0,0,0-1.23,1.59c-1.82-.86-3.68-1.67-5.59-2.49-1.5-.63-2.91-1.25-3.91-1.64a7.08,7.08,0,0,0-1.89-.51l0,0a15.68,15.68,0,0,0,1.17-1.24c.4-.46.79-.91,1.12-1.33a10.08,10.08,0,0,0,1.45,1c.75.43,2.07,1,3.52,1.67,1.06.47,1.82.83,2.72,1.18l.05-.05c-.45-.81-1.42-2.37-1.9-3.11a13,13,0,0,0-3.09-3.74c.32-.31.58-.58.9-.92s.53-.6.82-1A12.11,12.11,0,0,0,173.29,159.53Z"/><path class="cls-1" d="M186.53,157.35c-1.05,1.36-1.65,2.25-2.31,3.18s-.92,1.29-2,2.91a40.68,40.68,0,0,0-4.5-3.5c-1.88-1.33-4.18-3.07-5-3l0,0c.76-1,1.71-2.34,2.25-3.09l2.13-3.1a5.31,5.31,0,0,0,1.14,1.13l0,.06a14.62,14.62,0,0,0-2.77,3.17,38.47,38.47,0,0,0,3.12,2.32,18.06,18.06,0,0,0,1.67-2.71,10.63,10.63,0,0,0,1.2,1.08,10.76,10.76,0,0,0-2,2.26l1.67,1.17c1.57,1.11,1.94,1.09,2.55.23a8.77,8.77,0,0,0,1.58-3.3l.06-.09A6.86,6.86,0,0,0,186.53,157.35Z"/><path class="cls-1" d="M180.77,146.34a8.38,8.38,0,0,0-.54,1.13c.67.45,1.55.93,1.81,1.07l1.64.91c.22-.37.35-.58.5-.85.56-1,.49-2-1.07-2.82-1.32-.72-2-.09-2.34.56Zm10.93,1.74c-.25.48-.43.87-.73,1.46a20.9,20.9,0,0,0-2.95-.72,4.84,4.84,0,0,0-2.33-.13c-.44.19-.67.65-1,1.31a44.5,44.5,0,0,0,4.82,2.23c-.27.43-.55.91-.8,1.38s-.49.92-.68,1.36a51.4,51.4,0,0,0-5-3c-1.51-.82-4.26-2.38-5.17-2.39l0,0c.46-.81.8-1.44,1.24-2.24s.86-1.63,1.4-2.62c1.12-2.05,2.5-2.09,3.74-1.41a2.88,2.88,0,0,1,1.35,3.77h0a1.74,1.74,0,0,1,1.89-.94c.53.06.69.08,1.62.23a11,11,0,0,0,3.39.23l.09.05C192.16,147.27,191.91,147.71,191.7,148.08Z"/><path class="cls-1" d="M194.35,142.39c-.24.59-.91,2-1.36,2.87-.53-.34-1.18-.69-1.85-1l0-.08a4.49,4.49,0,0,0,2.23-2.36c.39-1,.17-1.79-.67-2.13a1.75,1.75,0,0,0-1.71.24c-1,.55-1.75,1.37-2.85,1.95a3.26,3.26,0,0,1-3.08.14c-1-.38-2.57-1.66-1.13-5.21.27-.66.73-1.7,1.18-2.54.44.34,1.09.78,1.7,1.16l0,.08a2.73,2.73,0,0,0-1.87,1.83c-.47,1.18-.06,2,.63,2.31.84.33,1.36.41,3.26-1.14,2.37-1.93,3.19-1.68,4.19-1.27C194.22,137.69,195.7,139.07,194.35,142.39Z"/><path class="cls-1" d="M197.09,134.43c-.16.51-.24.86-.43,1.58a51.64,51.64,0,0,0-5.43-2c-1.84-.57-4.36-1.43-5.63-1.24l0,0c.2-.51.35-1,.5-1.45s.3-1.05.47-1.65a45.28,45.28,0,0,0,5,1.81,47.23,47.23,0,0,0,6,1.55C197.31,133.78,197.19,134.12,197.09,134.43Z"/><path class="cls-1" d="M190.32,120.36l0,.1a9.35,9.35,0,0,0-1.07,2.94c.35.08,2.6.63,5,1.15a41.14,41.14,0,0,0,5.23.82c-.18.69-.24.88-.37,1.49a16,16,0,0,0-.29,1.57,50.92,50.92,0,0,0-5.64-1.53c-1.2-.26-3.38-.7-4.5-.93a9.31,9.31,0,0,0-.29,3.35l0,.11a8.17,8.17,0,0,0-1.56-.56c.46-1.61.76-2.94,1.09-4.42s.69-3.17.92-4.79A8.51,8.51,0,0,0,190.32,120.36Z"/><path class="cls-1" d="M191.19,108.87c.89.69,1.81,1.35,5.09,3.44,1.13.08,1.74.12,2.56.14a14.43,14.43,0,0,0,2.28-.11,15.13,15.13,0,0,0-.16,1.55c0,.5-.06.77-.07,1.6a11.74,11.74,0,0,0-2.2-.42c-.81-.06-1.44-.16-2.56-.24-2.74,1.13-5.09,2.33-5.67,2.62a5.72,5.72,0,0,0-1.32.91h-.07c.08-.6.14-1.18.19-1.79s.07-1.24.09-1.92a3.53,3.53,0,0,0,1.23-.21c.92-.33,2.18-.72,4.18-1.61v-.06a38.69,38.69,0,0,0-3.59-1.9,3.87,3.87,0,0,0-1.5-.38c.06-.44.1-.75.15-1.37,0-.47.06-.91.05-1.33A10.26,10.26,0,0,0,191.19,108.87Z"/></g></g></svg>